<svg width="1213" height="960" viewBox="0 0 1213 960" fill="none" xmlns="http://www.w3.org/2000/svg">
<path fill-rule="evenodd" clip-rule="evenodd" d="M1820.15 -341.923C1656.49 -287.787 1488.59 -214.038 1337.17 -124.754L1336.86 -277.274C1100.23 -155.823 859.526 29.9633 661.344 228.146L660.873 10.1922C623.684 43.3011 617.408 51.7744 581.631 87.5508C323.821 345.36 128.15 646.478 0.264807 964.857L270.471 1235.06C354.263 950.421 518.395 642.242 713.596 400.908L714.067 657.148C793.465 541.346 860.31 468.224 963.089 365.445C1081.87 246.662 1201.6 151.101 1337.49 63.543L1337.8 223.281C1523.43 50.2053 1740.91 -103.884 1962.47 -199.288L1820.15 -341.923Z" fill="url(#paint0_linear_205_76)"/>
<defs>
<linearGradient id="paint0_linear_205_76" x1="1613.34" y1="-396.824" x2="189.798" y2="1026.72" gradientUnits="userSpaceOnUse">
<stop offset="0.113" stop-color="#37003C"/>
<stop offset="1" stop-color="#00FF87"/>
</linearGradient>
</defs>
</svg>
